<?xml version="1.0" encoding="utf-8"?>
<!-- Generator: Adobe Illustrator 23.0.2, SVG Export Plug-In . SVG Version: 6.00 Build 0)  -->
<svg version="1.1" id="Layer_1" xmlns="http://www.w3.org/2000/svg" xmlns:xlink="http://www.w3.org/1999/xlink" x="0px" y="0px"
	 viewBox="0 0 95.84 114.59" style="enable-background:new 0 0 95.84 114.59;" xml:space="preserve">
<g>
	<g>
		<path d="M19.04,42.36c-0.14-1.1-0.27-2.21-0.41-3.31c-0.46-3.71-6.12-3.97-6,0c0.33,11.03,1.01,22.03,2.12,33.01
			c0.52,5.16,1.13,10.32,1.82,15.46c0.75,5.61,1.79,11.2,0.55,16.81c-0.83,3.76,4.96,5.37,5.79,1.6
			c2.28-10.37-0.87-21.56-1.96-31.93c-1.22-11.62-1.97-23.27-2.32-34.95c-2,0-4,0-6,0c0.14,1.1,0.27,2.21,0.41,3.31
			C13.51,46.15,19.51,46.19,19.04,42.36L19.04,42.36z"/>
	</g>
</g>
<g>
	<g>
		<path d="M16.89,33.84c-0.72,0.04-1.44,0.08-2.17,0.12c-3.83,0.21-3.89,6.02,0,6c10.63-0.06,21.27-0.12,31.9-0.18
			c5.48-0.03,10.96-0.06,16.43-0.09c2.52-0.01,5.23-0.31,7.73-0.04c4.03,0.44,4.85,1.98,5.87,5.67c2.78,10.09,4.67,19.92,4.58,30.43
			c-0.1,10.66-0.63,21.32-0.97,31.97c1.27-0.96,2.53-1.93,3.8-2.89c-20.4-4.42-41.26-5.47-61.99-2.96c-3.79,0.46-3.83,6.46,0,6
			c20.2-2.44,40.5-1.57,60.39,2.75c1.94,0.42,3.73-0.87,3.8-2.89c0.4-12.45,1.36-25.04,0.92-37.5c-0.19-5.41-0.93-10.76-2.08-16.04
			c-1.11-5.09-2.08-10.93-4.29-15.67c-1.64-3.53-4.29-4.74-8.09-4.88c-6.42-0.22-12.91,0.07-19.33,0.1
			c-12.89,0.07-25.78,0.14-38.67,0.22c0,2,0,4,0,6c0.72-0.04,1.44-0.08,2.17-0.12C20.73,39.63,20.75,33.63,16.89,33.84L16.89,33.84z
			"/>
	</g>
</g>
<g>
	<g>
		<path d="M36.58,83.81c8.8-1.31,18.11-1.08,27-1.23c-0.35-0.85-0.71-1.71-1.06-2.56c-3.28,3.24-1,10.23-0.64,14.23
			c0.5-0.5,1-1,1.5-1.5c-10.28,0.05-20.57,0.09-30.85,0.14c0.48,0.63,0.96,1.27,1.45,1.9c1.23-4.48,1.38-8.8,0.55-13.37
			c-0.73,0.56-1.47,1.13-2.2,1.69c0.2,0.11,0.4,0.22,0.6,0.33c1.69,0.94,3.2-1.65,1.51-2.59c-0.2-0.11-0.4-0.22-0.6-0.33
			c-1.21-0.67-2.43,0.43-2.2,1.69c0.74,4.07,0.55,7.8-0.55,11.78c-0.26,0.94,0.47,1.9,1.45,1.9c10.28-0.05,20.57-0.09,30.85-0.14
			c0.76,0,1.57-0.69,1.5-1.5c-0.22-2.49-2.14-10.23-0.24-12.11c0.92-0.9,0.24-2.58-1.06-2.56c-9.18,0.15-18.7-0.01-27.79,1.34
			C33.88,81.2,34.69,84.09,36.58,83.81L36.58,83.81z"/>
	</g>
</g>
<g>
	<g>
		<path d="M37.42,82.69c0.59,3.14,0.84,6.29,0.77,9.48c-0.04,1.93,2.96,1.93,3,0c0.07-3.46-0.24-6.88-0.88-10.28
			C39.96,80,37.07,80.8,37.42,82.69L37.42,82.69z"/>
	</g>
</g>
<g>
	<g>
		<path d="M42.66,81.45c1.04,2.72,1.34,5.52,0.77,8.39c-0.37,1.89,2.52,2.69,2.89,0.8c0.67-3.38,0.46-6.76-0.77-9.99
			C44.87,78.86,41.97,79.64,42.66,81.45L42.66,81.45z"/>
	</g>
</g>
<g>
	<g>
		<path d="M50.15,80.74c-0.36,3.6-0.14,7.15,0.61,10.7c0.4,1.89,3.29,1.09,2.89-0.8c-0.69-3.28-0.83-6.57-0.5-9.9
			C53.34,78.82,50.34,78.83,50.15,80.74L50.15,80.74z"/>
	</g>
</g>
<g>
	<g>
		<path d="M56.39,82.29c0.16,2.41,0.33,4.81,0.49,7.22c0.13,1.92,3.13,1.93,3,0c-0.16-2.41-0.33-4.81-0.49-7.22
			C59.26,80.37,56.26,80.36,56.39,82.29L56.39,82.29z"/>
	</g>
</g>
<g>
	<g>
		<path d="M23.8,51.83c-0.03,3.55,0.13,7.08,0.48,10.61c0.17,1.74,1.24,2.83,3,3c2.28,0.22,4.55,0.43,6.83,0.65
			c1.76,0.17,3.9,0.68,5.66,0.41c4.04-0.61,3.54-4.67,3.36-7.75c-0.17-3.05-0.14-6.53-3.18-8.24c-1.45-0.82-3.17-0.87-4.78-1.04
			c-2.29-0.24-4.58-0.45-6.87-0.68c-3.84-0.38-3.81,5.62,0,6c2.29,0.23,4.59,0.41,6.87,0.68c1.1,0.13,1.46-0.02,1.79,0.51
			c0.42,0.68,0.15,2.49,0.2,3.3c0.03,0.53,0.06,1.05,0.09,1.58c-0.18,1.62,0.35,1.51,1.59-0.32c-0.06-0.21-3.29-0.31-3.68-0.35
			c-2.63-0.25-5.25-0.5-7.88-0.75c1,1,2,2,3,3c-0.35-3.53-0.51-7.06-0.48-10.61C29.83,47.97,23.83,47.96,23.8,51.83L23.8,51.83z"/>
	</g>
</g>
<g>
	<g>
		<path d="M57.55,48.67c-0.7,4.22-0.94,8.38-0.58,12.65c0.14,1.63,1.26,2.99,3,3c3.61,0.03,6.36,1.53,8.59,4.32
			c1.71,2.13,5.08,0.27,5.12-2.12c0.07-4.35,0.62-8.56,1.67-12.78c0.32-1.31-0.22-2.69-1.38-3.39c-3.91-2.34-8.07-4.02-12.53-5.01
			c-3.76-0.83-5.37,4.95-1.6,5.79c3.97,0.88,7.6,2.31,11.09,4.4c-0.46-1.13-0.92-2.26-1.38-3.39c-1.17,4.73-1.8,9.51-1.88,14.38
			c1.71-0.71,3.41-1.41,5.12-2.12c-3.19-3.97-7.77-6.03-12.84-6.08c1,1,2,2,3,3c-0.31-3.72-0.24-7.38,0.37-11.06
			C63.96,46.48,58.18,44.86,57.55,48.67L57.55,48.67z"/>
	</g>
</g>
<g>
	<g>
		<path d="M20.95,35.47c0,1.36,0.27,2.18,0.8,3.42c1.35,3.14,6.44,0.9,5.48-2.31c-2.42-8.15-3.73-18.45-9.13-25.21
			c-0.96-1.2-3.27-1.13-4.24,0c-0.13,0.15-0.26,0.31-0.4,0.46c-0.67,0.78-1.14,1.87-0.77,2.92c0.07,0.19,0.13,0.38,0.2,0.57
			c1.28,3.62,7.08,2.06,5.79-1.6c-0.07-0.19-0.13-0.38-0.2-0.57c-0.26,0.97-0.51,1.95-0.77,2.92c0.13-0.15,0.26-0.31,0.4-0.46
			c-1.41,0-2.83,0-4.24,0c2.48,3.1,3.22,7.85,4.32,11.57c1.09,3.66,2.18,7.33,3.26,10.99c1.83-0.77,3.66-1.54,5.48-2.31
			c0.01-0.13,0.01-0.26,0.02-0.39C26.95,31.61,20.95,31.6,20.95,35.47L20.95,35.47z"/>
	</g>
</g>
<g>
	<g>
		<path d="M67.63,37.34c3.3-7.35,6.6-14.7,9.9-22.05c1.57-3.49-3.6-6.55-5.18-3.03c-3.3,7.35-6.6,14.7-9.9,22.05
			C60.88,37.81,66.05,40.87,67.63,37.34L67.63,37.34z"/>
	</g>
</g>
<g>
	<g>
		<path d="M70.12,14.72c2.76-0.76,5.5-1.14,8.36-1.15c3.86-0.01,3.87-6.01,0-6c-3.37,0.01-6.71,0.47-9.95,1.36
			C64.8,9.96,66.38,15.75,70.12,14.72L70.12,14.72z"/>
	</g>
</g>
<g>
	<g>
		<path d="M14.27,17.34c0.8-3.19,2.31-5.98,4.61-8.35c2.69-2.78-1.55-7.02-4.24-4.24c-2.99,3.09-5.1,6.83-6.15,11
			C7.54,19.49,13.33,21.09,14.27,17.34L14.27,17.34z"/>
	</g>
</g>
</svg>
