<?xml version="1.0" encoding="utf-8"?>
<!-- Generator: Adobe Illustrator 23.0.2, SVG Export Plug-In . SVG Version: 6.00 Build 0)  -->
<svg version="1.1" id="Layer_1" xmlns="http://www.w3.org/2000/svg" xmlns:xlink="http://www.w3.org/1999/xlink" x="0px" y="0px"
	 viewBox="0 0 95.84 114.59" style="enable-background:new 0 0 95.84 114.59;" xml:space="preserve">
<g>
	<g>
		<path d="M11.3,46.16c-4.55-2.52-4.96-8.38-2.85-12.7c2.23-4.57,6.51-7.89,10.36-11.03c-0.95,0.25-1.91,0.5-2.86,0.76
			c13.1,4.65,21.69-7.97,26.54-18.08c-1.69,0-3.38,0-5.08,0c1.85,2.48,2.8,4.96,2.85,8.07c0.04,2.3,2.45,3.57,4.42,2.54
			c5.43-2.84,10.27-6.37,14.65-10.65c-0.95,0.25-1.91,0.5-2.86,0.76c-0.16-0.06-0.1,4.81-0.04,5.19c0.31,1.87,0.93,3.53,2.54,4.68
			c4.5,3.2,13.04-1.13,17.6-2.37c-1.24-0.94-2.48-1.89-3.72-2.83c-0.11,4.1-0.21,8.19-0.32,12.29c-0.06,2.45,3.32,4,5.02,2.08
			c2.68-3.05,3.65,4.77,3.67,5.62c0.04,1.6-0.13,3.18,0.02,4.78c0.21,2.31,0.87,4.37,2.4,6.14c2.96,3.44,7.41,4.37,10.94,1.35
			c-1.64-0.43-3.27-0.86-4.91-1.3c1.41,5-2.42,9.95-7.59,9.88c-3.78-0.05-3.79,5.83,0,5.88c8.98,0.11,15.7-8.69,13.26-17.32
			c-0.64-2.25-3.26-2.71-4.91-1.3c-3.24,2.77-3.27-8.29-3.34-9.71c-0.12-2.62-0.61-5.14-2.35-7.17c-2.9-3.39-8.16-4.64-11.35-1.02
			c1.67,0.69,3.34,1.39,5.02,2.08c0.11-4.1,0.21-8.19,0.32-12.29c0.05-1.92-1.92-3.32-3.72-2.83C72,8.45,68.98,9.47,65.93,10.1
			c-2.12,0.44-3.18,1.15-3.78-0.9c-0.22-0.75,0.03-1.78,0-2.56C62,3.49,61.07,1.31,58.03,0.13c-0.96-0.37-2.16,0.08-2.86,0.76
			c-4.03,3.94-8.47,7.13-13.46,9.73c1.47,0.85,2.95,1.69,4.42,2.54c-0.07-4.1-1.2-7.73-3.65-11.03c-1.19-1.6-4.02-2.19-5.08,0
			C34.35,8.51,30.67,16.6,22.92,18.1c-2.96,0.57-5.29-1.24-7.98-0.06c-2.55,1.12-5.6,4.62-7.47,6.7c-6.68,7.45-9.59,20.71,0.85,26.5
			C11.64,53.07,14.61,47.99,11.3,46.16L11.3,46.16z"/>
	</g>
</g>
<g>
	<g>
		<path d="M8.97,49.67C4.13,63.5,7.19,78.81,13.13,91.83c5.16,11.31,14.37,21.79,27.52,22.7c12.45,0.86,24.16-7.07,30.93-17.03
			c8.53-12.55,10-28.44,11.4-43.12c0.36-3.76-5.52-3.74-5.88,0c-1.19,12.48-2.4,25.6-8.54,36.79c-5.19,9.45-15.22,17.71-26.48,17.54
			c-11.69-0.18-19.44-10.07-23.88-19.85c-5.29-11.65-7.87-25.31-3.56-37.63C15.89,47.66,10.21,46.12,8.97,49.67L8.97,49.67z"/>
	</g>
</g>
<g>
	<g>
		<path d="M34.26,50.76c-2.66-0.36-4.88,0.81-5.69,3.46c-0.62,2.01-0.23,4.58,1.28,6.12c0.82,0.84,2.02,1.4,3.2,1.39
			c1.74-0.01,2.94-1.03,3.9-2.38c1.87-2.62,1.92-6.01,0.51-8.83c-0.52-1.03-2.19-1.82-3.32-1.35c-3.84,1.62-5.88,5.15-5.16,9.29
			c0.25,1.44,2.24,2.61,3.62,2.05c2.63-1.07,4.23-3.39,4.09-6.28c-0.13-2.75-1.79-5.29-4.54-5.99c-3.67-0.94-5.23,4.73-1.56,5.67
			c0.32,0.08,0.29,0.15,0.06-0.04c-0.08-0.07,0.05,0.11,0.07,0.08c0.08-0.11,0.06,0.39,0.01,0.03c0.01,0.06,0.16,0.8,0.12,0.49
			c-0.05-0.34-0.05,0.47,0,0.12c0.05-0.3-0.11,0.41-0.13,0.48c0.12-0.4-0.03,0.1-0.08,0.08c-0.15-0.07,0.43-0.31,0.4-0.3
			c1.21,0.68,2.41,1.37,3.62,2.05c-0.12-0.69,0.41-1.79,1.05-2.06c-1.11-0.45-2.21-0.9-3.32-1.35c0.6,1.18,0.02,2.39-0.92,3.18
			c0.43-0.25,0.86-0.5,1.3-0.76c0.71-0.12,0.92,0.17,1.44,0.52c-0.26-0.18,0,0.18-0.04-0.16c-0.08-0.57,0.06,0.3,0-0.07
			c-0.02-0.15,0.06-0.74-0.03-0.07c0.02-0.18,0-0.59,0.07-0.31c0.05,0.2-0.49,0.55-0.12,0.23c-0.42,0.35-0.86,0.46-1.4,0.38
			c1.57,0.21,3.15-0.38,3.62-2.05C36.69,53.01,35.84,50.98,34.26,50.76L34.26,50.76z"/>
	</g>
</g>
<g>
	<g>
		<path d="M62.46,54.58c1.24-3.81-2.39-7.76-6.25-7.29c-5.29,0.65-3.68,7.31-0.68,9.74c3.17,2.56,7.69,1.77,9.74-1.78
			c1.84-3.21,0.74-7.7-3.03-8.83c-3.61-1.09-8.29,1.77-7.88,5.8c0.16,1.58,1.24,2.94,2.94,2.94c1.47,0,3.1-1.35,2.94-2.94
			c-0.01-0.36-0.03-0.37-0.09-0.03c0.02-0.08,0.05-0.17,0.07-0.25c-0.14,0.12-0.29,0.65-0.03,0.21c-0.19,0.32,0.23-0.06-0.12,0.04
			c0.05-0.01,0.92-0.24,0.31-0.13c0.32,0.01,0.37,0,0.16-0.03c-0.21-0.04-0.16-0.03,0.14,0.04c-0.02-0.03-0.38-0.31-0.44-0.37
			c0.24,0.27,0.18,0.24,0.07-0.11c-0.02,0.32-0.01,0.39,0.03,0.2c0.05-0.19,0.03-0.13-0.04,0.2c-0.08,0.35-0.24,0.56-0.5,0.76
			c0.24-0.18-0.32-0.11-0.01-0.03c0.47,0.12-0.39-0.1-0.11,0c-0.53-0.19-1.19-0.97-1.11-1.47c-0.45,0.59-0.9,1.17-1.35,1.76
			c-0.18,0.09-0.34,0.02-0.5,0.08c-0.29,0.11,0.3,0.02,0.05,0.01c0.55,0.02-0.18,0.34,0.08-0.01c0.03-0.04,0.21-0.85-0.05-0.07
			C55.61,56.63,61.29,58.17,62.46,54.58L62.46,54.58z"/>
	</g>
</g>
<g>
	<g>
		<path d="M41.97,64.41c-1.13,4.67-0.5,9.37,1.85,13.56c1.85,3.3,6.93,0.34,5.08-2.97c-1.58-2.81-2.02-5.9-1.26-9.03
			C48.53,62.3,42.86,60.73,41.97,64.41L41.97,64.41z"/>
	</g>
</g>
<g>
	<g>
		<path d="M33.46,92.57c9.63,5.87,22.62,3.81,29.72-5.05c2.34-2.92-1.79-7.11-4.16-4.16c-5.5,6.86-15.04,8.74-22.6,4.13
			C33.19,85.52,30.23,90.6,33.46,92.57L33.46,92.57z"/>
	</g>
</g>
<g>
	<g>
		<path d="M8.85,55.29c-12.76,5.69-11.19,23.07,1.29,27.87c3.53,1.36,5.06-4.32,1.56-5.67c-8.39-3.23-7.46-13.75,0.11-17.12
			C15.26,58.82,12.28,53.76,8.85,55.29L8.85,55.29z"/>
	</g>
</g>
<g>
	<g>
		<path d="M80.08,64.43c-0.48-1.22,0.81-2.02,1.93-1.49c1.05,0.49,1.5,2.13,1.54,3.17c0.14,3.19-2.33,6.09-4.12,8.49
			c-2.26,3.03,2.84,5.97,5.08,2.97c4.01-5.37,7.91-13.77,1.41-19.06c-5.08-4.14-14.15,0.79-11.5,7.49
			C75.79,69.47,81.48,67.96,80.08,64.43L80.08,64.43z"/>
	</g>
</g>
</svg>
